<?xml version="1.0" encoding="iso-8859-1"?>
<!-- Generator: Adobe Illustrator 19.0.0, SVG Export Plug-In . SVG Version: 6.00 Build 0)  -->
<svg version="1.1" id="Capa_1" xmlns="http://www.w3.org/2000/svg" xmlns:xlink="http://www.w3.org/1999/xlink" x="0px" y="0px"
	 viewBox="0 0 512.004 512.004" style="enable-background:new 0 0 512.004 512.004;" xml:space="preserve">
<g>
	<g>
		<path d="M434.205,344.473L92.872,3.14c-3.029-3.051-7.616-3.989-11.605-2.325c-3.989,1.643-6.592,5.547-6.592,9.856v490.667
			c0,4.395,2.688,8.32,6.763,9.92c1.259,0.512,2.581,0.747,3.904,0.747c2.901,0,5.76-1.195,7.808-3.413l135.509-145.92h198.016
			c4.309,0,8.213-2.581,9.835-6.571C438.173,352.111,437.256,347.524,434.205,344.473z M224.008,341.337
			c-2.965,0-5.803,1.237-7.808,3.413L96.008,474.18V36.42l304.917,304.917H224.008z"/>
	</g>
</g>
<g>
</g>
<g>
</g>
<g>
</g>
<g>
</g>
<g>
</g>
<g>
</g>
<g>
</g>
<g>
</g>
<g>
</g>
<g>
</g>
<g>
</g>
<g>
</g>
<g>
</g>
<g>
</g>
<g>
</g>
</svg>
